<svg width="20" height="21" viewBox="0 0 20 21" fill="none" xmlns="http://www.w3.org/2000/svg">
<path d="M9.9974 2.33203C5.40573 2.33203 1.66406 6.0737 1.66406 10.6654C1.66406 15.257 5.40573 18.9987 9.9974 18.9987C14.5891 18.9987 18.3307 15.257 18.3307 10.6654C18.3307 6.0737 14.5891 2.33203 9.9974 2.33203ZM13.9807 8.7487L9.25573 13.4737C9.13906 13.5904 8.98073 13.657 8.81406 13.657C8.6474 13.657 8.48906 13.5904 8.3724 13.4737L6.01406 11.1154C5.7724 10.8737 5.7724 10.4737 6.01406 10.232C6.25573 9.99036 6.65573 9.99036 6.8974 10.232L8.81406 12.1487L13.0974 7.86537C13.3391 7.6237 13.7391 7.6237 13.9807 7.86537C14.2224 8.10703 14.2224 8.4987 13.9807 8.7487Z" fill="#196835"/>
</svg>
