<svg width="34" height="25" viewBox="0 0 34 25" fill="none" xmlns="http://www.w3.org/2000/svg">
<path d="M31.9997 11.4994H5.62068L13.5602 3.55989C13.7034 3.42152 13.8177 3.256 13.8963 3.073C13.9749 2.88999 14.0163 2.69316 14.0181 2.49399C14.0198 2.29482 13.9818 2.0973 13.9064 1.91296C13.831 1.72861 13.7196 1.56114 13.5788 1.4203C13.4379 1.27946 13.2705 1.16808 13.0861 1.09266C12.9018 1.01724 12.7042 0.979283 12.5051 0.981014C12.3059 0.982744 12.1091 1.02412 11.9261 1.10274C11.7431 1.18135 11.5775 1.29562 11.4392 1.43889L0.93918 11.9389C0.657973 12.2202 0.5 12.6016 0.5 12.9994C0.5 13.3971 0.657973 13.7786 0.93918 14.0599L11.4392 24.5599C11.7221 24.8331 12.101 24.9843 12.4943 24.9809C12.8876 24.9775 13.2638 24.8197 13.5419 24.5416C13.82 24.2635 13.9778 23.8873 13.9812 23.494C13.9846 23.1007 13.8334 22.7218 13.5602 22.4389L5.62068 14.4994H31.9997C32.3975 14.4994 32.779 14.3414 33.0603 14.06C33.3416 13.7787 33.4997 13.3972 33.4997 12.9994C33.4997 12.6016 33.3416 12.22 33.0603 11.9387C32.779 11.6574 32.3975 11.4994 31.9997 11.4994Z" fill="black"/>
</svg>
