<svg width="48" height="49" viewBox="0 0 48 49" fill="none" xmlns="http://www.w3.org/2000/svg">
<path d="M41.022 10.666H34.581L33.831 8.41602C33.4695 7.32352 32.7725 6.37292 31.8393 5.69961C30.9061 5.0263 29.7843 4.6646 28.6335 4.66602H19.3665C18.2161 4.66514 17.0946 5.02708 16.1618 5.70033C15.2289 6.37359 14.5321 7.32388 14.1705 8.41602L13.419 10.666H6.978C5.52563 10.6676 4.1332 11.2453 3.10622 12.2722C2.07924 13.2992 1.50159 14.6917 1.5 16.144V38.194C1.50317 39.6453 2.08153 41.0362 3.10834 42.0619C4.13515 43.0876 5.52667 43.6644 6.978 43.666H41.028C42.4793 43.6628 43.8702 43.0845 44.8959 42.0577C45.9216 41.0309 46.4984 39.6393 46.5 38.188V16.138C46.4968 14.6867 45.9185 13.2958 44.8917 12.2701C43.8649 11.2444 42.4733 10.6676 41.022 10.666ZM43.5 38.188C43.4992 38.845 43.2379 39.4748 42.7733 39.9394C42.3088 40.4039 41.679 40.6652 41.022 40.666H6.978C6.32104 40.6652 5.69121 40.4039 5.22667 39.9394C4.76212 39.4748 4.50079 38.845 4.5 38.188V16.138C4.50238 15.4821 4.76441 14.8538 5.22878 14.3906C5.69315 13.9273 6.32207 13.6668 6.978 13.666H14.5005C14.8152 13.6658 15.1218 13.5666 15.377 13.3824C15.6322 13.1983 15.8231 12.9386 15.9225 12.64L17.016 9.35952C17.1802 8.86609 17.4957 8.43692 17.9176 8.13293C18.3395 7.82894 18.8465 7.66557 19.3665 7.66602H28.6335C29.1538 7.66545 29.661 7.82895 30.083 8.13326C30.505 8.43757 30.8203 8.86719 30.984 9.36102L32.0775 12.64C32.1769 12.9386 32.3678 13.1983 32.623 13.3824C32.8782 13.5666 33.1848 13.6658 33.4995 13.666H41.022C41.679 13.6668 42.3088 13.9281 42.7733 14.3927C43.2379 14.8572 43.4992 15.4871 43.5 16.144V38.188Z" fill="black"/>
<path d="M24 15.166C21.775 15.166 19.5999 15.8258 17.7498 17.062C15.8998 18.2981 14.4578 20.0552 13.6064 22.1108C12.7549 24.1665 12.5321 26.4285 12.9662 28.6108C13.4003 30.7931 14.4717 32.7976 16.0451 34.371C17.6184 35.9443 19.623 37.0158 21.8052 37.4499C23.9875 37.8839 26.2495 37.6611 28.3052 36.8097C30.3609 35.9582 32.1179 34.5162 33.354 32.6662C34.5902 30.8161 35.25 28.6411 35.25 26.416C35.2468 23.4333 34.0605 20.5737 31.9515 18.4646C29.8424 16.3555 26.9827 15.1692 24 15.166ZM24 34.666C22.3683 34.666 20.7733 34.1822 19.4166 33.2756C18.0598 32.3691 17.0024 31.0806 16.378 29.5732C15.7536 28.0657 15.5902 26.4069 15.9085 24.8065C16.2269 23.2062 17.0126 21.7362 18.1664 20.5824C19.3202 19.4286 20.7902 18.6429 22.3905 18.3245C23.9909 18.0062 25.6497 18.1696 27.1571 18.794C28.6646 19.4184 29.9531 20.4759 30.8596 21.8326C31.7661 23.1893 32.25 24.7843 32.25 26.416C32.2476 28.6033 31.3777 30.7004 29.831 32.247C28.2843 33.7937 26.1873 34.6636 24 34.666Z" fill="black"/>
<path d="M39 19.666C39.8284 19.666 40.5 18.9944 40.5 18.166C40.5 17.3376 39.8284 16.666 39 16.666C38.1716 16.666 37.5 17.3376 37.5 18.166C37.5 18.9944 38.1716 19.666 39 19.666Z" fill="black"/>
</svg>
