<svg width="28" height="28" viewBox="0 0 28 28" fill="none" xmlns="http://www.w3.org/2000/svg">
<g clip-path="url(#clip0_7523_3084)">
<path d="M14 16.8711C15.5857 16.8711 16.8711 15.5857 16.8711 14C16.8711 12.4143 15.5857 11.1289 14 11.1289C12.4143 11.1289 11.1289 12.4143 11.1289 14C11.1289 15.5857 12.4143 16.8711 14 16.8711Z" fill="#094E9E"/>
<path d="M14 0.328125C6.44924 0.328125 0.328125 6.44924 0.328125 14C0.328125 21.5508 6.44924 27.6719 14 27.6719C21.5508 27.6719 27.6719 21.5508 27.6719 14C27.6719 6.44924 21.5508 0.328125 14 0.328125ZM22.4469 17.4748C22.3813 18.7747 22.016 20.0564 21.0688 20.9936C20.1124 21.9397 18.8245 22.2922 17.5122 22.3572H10.4879C9.17536 22.2922 7.88769 21.9399 6.93126 20.9936C5.98396 20.0564 5.61876 18.7747 5.55313 17.4748V10.5252C5.61876 9.22534 5.98402 7.94358 6.93126 7.00634C7.88769 6.06025 9.17552 5.70773 10.4879 5.64282H17.5121C18.8246 5.70773 20.1123 6.06009 21.0687 7.00634C22.016 7.94358 22.3812 9.22534 22.4469 10.5252L22.4469 17.4748Z" fill="#094E9E"/>
<path d="M17.4237 7.2266C15.7127 7.17968 12.2882 7.17968 10.5773 7.2266C9.68689 7.25104 8.67753 7.47269 8.04315 8.15027C7.38395 8.85459 7.13485 9.70553 7.10958 10.6575C7.06517 12.3283 7.10958 17.3431 7.10958 17.3431C7.13851 18.295 7.38395 19.146 8.04315 19.8503C8.67753 20.5281 9.68689 20.7496 10.5773 20.774C12.2882 20.8209 15.7127 20.8209 17.4237 20.774C18.3141 20.7496 19.3234 20.5279 19.9578 19.8503C20.617 19.146 20.8661 18.2951 20.8914 17.3431V10.6575C20.8661 9.70553 20.617 8.85459 19.9578 8.15027C19.3232 7.47247 18.3138 7.25104 17.4237 7.2266ZM14.0003 18.4505C13.1201 18.4505 12.2597 18.1895 11.5279 17.7005C10.796 17.2115 10.2256 16.5165 9.88882 15.7033C9.55199 14.8901 9.46386 13.9954 9.63557 13.1321C9.80729 12.2689 10.2311 11.4759 10.8535 10.8535C11.4759 10.2312 12.2688 9.80733 13.1321 9.63561C13.9953 9.4639 14.8901 9.55203 15.7033 9.88886C16.5164 10.2257 17.2115 10.7961 17.7005 11.5279C18.1895 12.2597 18.4505 13.1201 18.4505 14.0003C18.4505 15.1806 17.9816 16.3125 17.147 17.1471C16.3124 17.9816 15.1805 18.4505 14.0003 18.4505ZM18.4694 10.4687C18.2934 10.4686 18.1213 10.4164 17.975 10.3186C17.8286 10.2208 17.7146 10.0817 17.6472 9.9191C17.5799 9.75647 17.5623 9.57752 17.5967 9.40488C17.6311 9.23224 17.7158 9.07367 17.8403 8.94922C17.9648 8.82477 18.1234 8.74002 18.296 8.7057C18.4687 8.67137 18.6476 8.68901 18.8102 8.75638C18.9729 8.82376 19.1119 8.93783 19.2097 9.0842C19.3074 9.23056 19.3596 9.40263 19.3596 9.57865C19.3596 9.69555 19.3366 9.81131 19.2919 9.91931C19.2471 10.0273 19.1815 10.1254 19.0989 10.2081C19.0162 10.2907 18.9181 10.3563 18.81 10.401C18.702 10.4457 18.5863 10.4687 18.4694 10.4687Z" fill="#094E9E"/>
</g>
<defs>
<clipPath id="clip0_7523_3084">
<rect width="28" height="28" fill="white"/>
</clipPath>
</defs>
</svg>
