<svg width="400" height="59" viewBox="0 0 400 59" fill="none" xmlns="http://www.w3.org/2000/svg">
<g clip-path="url(#clip0_1224_2385)">
<path d="M48.1876 33.4147H36.7758L26.1456 15.0073C25.2858 13.5613 23.2145 13.5613 22.3547 15.0073L5.35422 44.4358C1.21158 41.8955 -1.48505 36.5413 0.898923 32.3986L1.48515 31.3825L17.2741 4.0254C20.3616 -1.32878 28.0997 -1.32878 31.2262 4.0254L48.1876 33.4147Z" fill="#E52A2A"/>
<path d="M26.1456 15.0072C25.2858 13.5611 23.2145 13.5611 22.3547 15.0072L5.35422 44.4356C1.21158 41.8953 -1.48505 36.5411 0.898923 32.3985L1.48515 31.3823L13.2096 11.0599C13.2096 11.0599 15.1637 9.8093 18.7592 10.122C23.6053 10.5519 26.1456 15.0072 26.1456 15.0072Z" fill="#981F20"/>
<path d="M24.2306 17.0396L29.9365 26.9272L19.3063 45.3346C18.4465 46.7806 19.5017 48.6175 21.2213 48.6175H55.2223C55.105 53.4636 51.8222 58.5051 47.0151 58.5051H45.8427H14.2648C8.05081 58.5051 4.18173 51.8222 7.30826 46.4289L24.2306 17.0396Z" fill="#36B04A"/>
<path d="M19.3064 45.3345C18.4466 46.7805 19.5018 48.6173 21.2214 48.6173H55.2223C55.1051 53.4634 51.8222 58.505 47.0152 58.505H45.8428H22.3547C22.3547 58.505 20.2834 57.4498 18.7592 54.1669C16.727 49.7898 19.3064 45.3345 19.3064 45.3345Z" fill="#106A37"/>
<path d="M22.0812 45.96L27.7871 36.0724H49.0475C50.728 36.0724 51.7832 34.2356 50.9234 32.7895L33.962 3.36112C38.2219 1.01622 44.2014 1.36796 46.6244 5.5106L47.2106 6.52672L62.9996 33.8838C66.087 39.238 62.218 45.96 56.0431 45.96H22.0812Z" fill="#1F94D1"/>
<path d="M49.0475 36.0724C50.728 36.0724 51.7832 34.2356 50.9234 32.7895L33.962 3.36112C38.2219 1.01622 44.2014 1.36796 46.6245 5.5106L47.2107 6.52672L58.9352 26.8491C58.9352 26.8491 59.0524 29.155 56.9811 32.1252C54.2063 36.1115 49.0475 36.0724 49.0475 36.0724Z" fill="#283C8A"/>
<path d="M94.6555 7.38672H78.6321V51.2753H83.9863V36.6979H94.9682C102.98 36.6979 109.467 30.2494 109.624 22.3159C109.741 14.1087 102.863 7.38672 94.6555 7.38672ZM104.27 22.394C104.074 27.4356 99.7752 31.3437 94.7337 31.3437H83.9863V12.7409H94.9682C100.205 12.7409 104.465 17.118 104.27 22.394Z" fill="#231F20"/>
<path d="M145.552 12.3356C146.403 10.2816 145.428 7.92682 143.374 7.07601C141.32 6.22521 138.965 7.20058 138.114 9.25457C137.263 11.3086 138.239 13.6633 140.293 14.5142C142.347 15.365 144.702 14.3896 145.552 12.3356Z" fill="#231F20"/>
<path d="M144.563 18.564H139.209V51.2752H144.563V18.564Z" fill="#231F20"/>
<path d="M120.215 24.309V18.564H114.9V51.2752H120.254V33.8058C120.254 25.4032 126.898 23.2147 133.933 23.84V18.9939C127.797 18.3686 124.162 19.541 120.215 24.309Z" fill="#231F20"/>
<path d="M187.982 18.2119C183.097 18.2119 178.759 20.6741 176.141 24.4259C173.522 20.7131 169.184 18.251 164.299 18.251C160.821 18.251 157.303 19.9706 155.154 22.9799V18.6418H149.8V32.7893V51.2359H155.115V32.3594C155.115 27.5133 159.375 23.6052 164.26 23.6052C169.301 23.6052 173.444 27.7478 173.444 32.8284V51.2749C173.444 51.2749 173.444 51.314 173.483 51.314H178.798C178.798 51.314 178.837 51.314 178.837 51.2749V32.7503C178.837 27.6697 182.941 23.527 187.982 23.527C193.024 23.527 197.127 27.6697 197.127 32.7503V51.2749H202.443V32.7503C202.403 24.7385 195.916 18.2119 187.982 18.2119Z" fill="#231F20"/>
<path d="M223.117 18.2122C214.675 18.564 207.679 25.3251 207.093 33.7667C206.39 43.5762 214.167 51.7442 223.82 51.7442C230.659 51.7442 236.522 47.6407 239.14 41.7784H233.043C230.933 44.5923 227.572 46.4682 223.781 46.4682C218.036 46.4682 213.268 42.2474 212.408 36.7369H235.115H240.547V34.9782C240.547 33.9621 240.469 32.9851 240.273 32.008C238.867 23.9572 231.636 17.8605 223.117 18.2122ZM212.721 32.008C214.011 27.1228 218.505 23.4882 223.82 23.4882C229.135 23.4882 233.59 27.1228 234.919 32.008H212.721Z" fill="#231F20"/>
<path d="M349.037 18.3295C345.286 18.4468 340.713 20.7526 338.681 23.4492V18.8376H333.366L333.288 51.3144H338.681V32.6334C338.681 26.6148 343.957 23.7619 349.037 23.84C354.001 23.8791 358.378 26.224 358.378 31.4219V51.3144H363.732V31.6564C363.732 22.0423 357.323 18.056 349.037 18.3295Z" fill="#231F20"/>
<path d="M283.928 28.2954C286.116 26.0677 287.484 23.0194 287.484 19.6583C287.484 12.8972 281.974 7.38672 275.212 7.38672H257.899H255.203V51.2753H257.86H277.948C284.709 51.2753 290.22 45.7648 290.22 39.0037C290.22 34.3921 287.679 30.3667 283.928 28.2954ZM282.13 19.6583C282.13 23.4883 279.003 26.5758 275.212 26.5758H260.557V12.7018H275.212C279.042 12.7409 282.13 15.8283 282.13 19.6583ZM277.948 45.9212H260.557V32.0472H277.948C281.778 32.0472 284.866 35.1737 284.866 38.9646C284.905 42.8337 281.778 45.9212 277.948 45.9212Z" fill="#231F20"/>
<path d="M399.57 51.2753L384.993 32.7116L400 18.5641H392.223L374.362 35.4082V7.38672H369.008V51.2753H374.362V42.7556L381.123 36.3853L392.809 51.2753H399.57Z" fill="#231F20"/>
<path d="M322.657 18.8378V23.6057C320.391 20.3229 315.623 18.0952 311.207 18.0952C301.944 18.0952 294.441 25.638 294.441 34.8612C294.441 44.0845 301.983 51.6272 311.207 51.6272C315.623 51.6272 320.195 49.595 322.657 46.3512V51.2364H328.012V18.7987H322.657V18.8378ZM311.207 46.3903C304.875 46.3903 299.717 41.2315 299.717 34.9003C299.717 28.5691 304.875 23.4103 311.207 23.4103C317.303 23.4103 322.306 28.1783 322.657 34.1968V35.6428C322.657 41.6223 317.303 46.3903 311.207 46.3903Z" fill="#231F20"/>
</g>
<defs>
<clipPath id="clip0_1224_2385">
<rect width="400" height="58.5051" fill="white"/>
</clipPath>
</defs>
</svg>
