<svg width="171" height="36" viewBox="0 0 171 36" fill="none" xmlns="http://www.w3.org/2000/svg">
<path d="M23.4724 34.1998C24.9145 34.1998 27.836 33.2611 28.7679 28.65H12.419C11.1469 28.65 10.7218 27.8827 11.317 26.6014L16.4424 17.0812L13.3917 11.5315L5.25969 26.4747C2.71569 31.0823 4.40943 34.1998 9.45322 34.1141H23.4316V34.1998H23.4724Z" fill="white"/>
<path d="M26.0577 6.83507C25.3808 5.47161 23.0919 3.33736 18.8984 4.78646L27.0746 19.7707C27.6664 20.9663 27.3297 21.7337 25.9726 21.7337H15.6368L12.586 27.2834H28.8533C33.8087 27.2834 35.5909 24.1249 33.0469 19.5583L26.0577 6.83507Z" fill="white"/>
<path d="M2.42017 18.1504C1.65833 19.5138 0.981514 22.6724 4.36898 25.7898L12.5452 10.8055C13.222 9.60993 14.0688 9.60993 14.7491 10.8055L19.8745 20.2401H25.9318L17.7556 5.25579C15.215 0.648136 11.8683 0.648136 9.32434 5.25579L2.42017 18.1504Z" fill="white"/>
<path d="M41.7216 26.5V9.04545H48.267C49.608 9.04545 50.733 9.29545 51.642 9.79545C52.5568 10.2955 53.2472 10.983 53.7131 11.858C54.1847 12.7273 54.4205 13.7159 54.4205 14.8239C54.4205 15.9432 54.1847 16.9375 53.7131 17.8068C53.2415 18.6761 52.5455 19.3608 51.625 19.8608C50.7045 20.3551 49.571 20.6023 48.2244 20.6023H43.8864V18.0028H47.7983C48.5824 18.0028 49.2244 17.8665 49.7244 17.5938C50.2244 17.321 50.5938 16.946 50.8324 16.4688C51.0767 15.9915 51.1989 15.4432 51.1989 14.8239C51.1989 14.2045 51.0767 13.6591 50.8324 13.1875C50.5938 12.7159 50.2216 12.3494 49.7159 12.0881C49.2159 11.821 48.571 11.6875 47.7812 11.6875H44.8835V26.5H41.7216ZM57.0305 26.5V13.4091H60.022V15.5909H60.1584C60.397 14.8352 60.8061 14.2528 61.3857 13.8438C61.9709 13.429 62.6385 13.2216 63.3885 13.2216C63.5589 13.2216 63.7493 13.2301 63.9595 13.2472C64.1754 13.2585 64.3544 13.2784 64.4964 13.3068V16.1449C64.3658 16.0994 64.1584 16.0597 63.8743 16.0256C63.5959 15.9858 63.326 15.9659 63.0646 15.9659C62.5021 15.9659 61.9964 16.0881 61.5476 16.3324C61.1044 16.571 60.755 16.9034 60.4993 17.3295C60.2436 17.7557 60.1158 18.2472 60.1158 18.804V26.5H57.0305ZM66.5462 26.5V13.4091H69.6314V26.5H66.5462ZM68.0973 11.5511C67.6087 11.5511 67.1882 11.3892 66.8359 11.0653C66.4837 10.7358 66.3075 10.3409 66.3075 9.88068C66.3075 9.41477 66.4837 9.01989 66.8359 8.69602C67.1882 8.36648 67.6087 8.2017 68.0973 8.2017C68.5916 8.2017 69.0121 8.36648 69.3587 8.69602C69.7109 9.01989 69.8871 9.41477 69.8871 9.88068C69.8871 10.3409 69.7109 10.7358 69.3587 11.0653C69.0121 11.3892 68.5916 11.5511 68.0973 11.5511ZM72.804 26.5V13.4091H75.7528V15.6335H75.9062C76.179 14.8835 76.6307 14.2983 77.2614 13.8778C77.892 13.4517 78.6449 13.2386 79.5199 13.2386C80.4062 13.2386 81.1534 13.4545 81.7614 13.8864C82.375 14.3125 82.8068 14.8949 83.0568 15.6335H83.1932C83.483 14.9062 83.9716 14.3267 84.6591 13.8949C85.3523 13.4574 86.1733 13.2386 87.1222 13.2386C88.3267 13.2386 89.3097 13.6193 90.071 14.3807C90.8324 15.142 91.2131 16.2528 91.2131 17.7131V26.5H88.1193V18.1903C88.1193 17.3778 87.9034 16.7841 87.4716 16.4091C87.0398 16.0284 86.5114 15.8381 85.8864 15.8381C85.142 15.8381 84.5597 16.071 84.1392 16.5369C83.7244 16.9972 83.517 17.5966 83.517 18.3352V26.5H80.4915V18.0625C80.4915 17.3864 80.2869 16.8466 79.8778 16.4432C79.4744 16.0398 78.946 15.8381 78.2926 15.8381C77.8494 15.8381 77.446 15.9517 77.0824 16.179C76.7188 16.4006 76.429 16.7159 76.2131 17.125C75.9972 17.5284 75.8892 18 75.8892 18.5398V26.5H72.804ZM100.138 26.7557C98.826 26.7557 97.6925 26.483 96.7379 25.9375C95.7891 25.3864 95.0589 24.608 94.5476 23.6023C94.0362 22.5909 93.7805 21.4006 93.7805 20.0312C93.7805 18.6847 94.0362 17.5028 94.5476 16.4858C95.0646 15.4631 95.7862 14.6676 96.7124 14.0994C97.6385 13.5256 98.7266 13.2386 99.9766 13.2386C100.783 13.2386 101.545 13.3693 102.261 13.6307C102.982 13.8864 103.619 14.2841 104.17 14.8239C104.727 15.3636 105.164 16.0511 105.482 16.8864C105.8 17.7159 105.96 18.7045 105.96 19.8523V20.7983H95.2294V18.7188H103.002C102.996 18.1278 102.869 17.6023 102.619 17.142C102.369 16.6761 102.019 16.3097 101.57 16.0426C101.127 15.7756 100.61 15.642 100.019 15.642C99.3885 15.642 98.8345 15.7955 98.3572 16.1023C97.88 16.4034 97.5078 16.8011 97.2408 17.2955C96.9794 17.7841 96.8459 18.321 96.8402 18.9062V20.7216C96.8402 21.483 96.9794 22.1364 97.2578 22.6818C97.5362 23.2216 97.9254 23.6364 98.4254 23.9261C98.9254 24.2102 99.5107 24.3523 100.181 24.3523C100.63 24.3523 101.036 24.2898 101.4 24.1648C101.763 24.0341 102.079 23.8438 102.346 23.5938C102.613 23.3438 102.815 23.0341 102.951 22.6648L105.832 22.9886C105.65 23.75 105.303 24.4148 104.792 24.983C104.286 25.5455 103.638 25.983 102.849 26.2955C102.059 26.6023 101.156 26.7557 100.138 26.7557ZM114.659 26.5V9.04545H121.341C122.602 9.04545 123.651 9.24432 124.486 9.64204C125.327 10.0341 125.955 10.571 126.369 11.2528C126.79 11.9347 127 12.7074 127 13.571C127 14.2812 126.864 14.8892 126.591 15.3949C126.318 15.8949 125.952 16.3011 125.491 16.6136C125.031 16.9261 124.517 17.1506 123.949 17.2869V17.4574C124.568 17.4915 125.162 17.6818 125.73 18.0284C126.304 18.3693 126.773 18.8523 127.136 19.4773C127.5 20.1023 127.682 20.858 127.682 21.7443C127.682 22.6477 127.463 23.4602 127.026 24.1818C126.588 24.8977 125.929 25.4631 125.048 25.8778C124.168 26.2926 123.06 26.5 121.724 26.5H114.659ZM117.821 23.858H121.222C122.369 23.858 123.196 23.6392 123.702 23.2017C124.213 22.7585 124.469 22.1903 124.469 21.4972C124.469 20.9801 124.341 20.5142 124.085 20.0994C123.83 19.679 123.466 19.3494 122.994 19.1108C122.523 18.8665 121.96 18.7443 121.307 18.7443H117.821V23.858ZM117.821 16.4688H120.949C121.494 16.4688 121.986 16.3693 122.423 16.1705C122.861 15.9659 123.205 15.679 123.455 15.3097C123.71 14.9347 123.838 14.4915 123.838 13.9801C123.838 13.304 123.599 12.7472 123.122 12.3097C122.651 11.8722 121.949 11.6534 121.017 11.6534H117.821V16.4688ZM134.063 26.7642C133.234 26.7642 132.487 26.6165 131.822 26.321C131.163 26.0199 130.64 25.5767 130.254 24.9915C129.873 24.4062 129.683 23.6847 129.683 22.8267C129.683 22.0881 129.819 21.4773 130.092 20.9943C130.364 20.5114 130.737 20.125 131.208 19.8352C131.68 19.5455 132.211 19.3267 132.802 19.179C133.398 19.0256 134.015 18.9148 134.651 18.8466C135.418 18.767 136.04 18.696 136.518 18.6335C136.995 18.5653 137.342 18.4631 137.558 18.3267C137.779 18.1847 137.89 17.9659 137.89 17.6705V17.6193C137.89 16.9773 137.7 16.4801 137.319 16.1278C136.938 15.7756 136.39 15.5994 135.674 15.5994C134.918 15.5994 134.319 15.7642 133.876 16.0938C133.438 16.4233 133.143 16.8125 132.989 17.2614L130.109 16.8523C130.336 16.0568 130.711 15.392 131.234 14.858C131.756 14.3182 132.396 13.9148 133.151 13.6477C133.907 13.375 134.742 13.2386 135.657 13.2386C136.288 13.2386 136.915 13.3125 137.54 13.4602C138.165 13.608 138.737 13.8523 139.254 14.1932C139.771 14.5284 140.185 14.9858 140.498 15.5653C140.816 16.1449 140.975 16.8693 140.975 17.7386V26.5H138.009V24.7017H137.907C137.719 25.0653 137.455 25.4062 137.114 25.7244C136.779 26.0369 136.356 26.2898 135.844 26.483C135.339 26.6705 134.745 26.7642 134.063 26.7642ZM134.864 24.4972C135.484 24.4972 136.021 24.375 136.475 24.1307C136.93 23.8807 137.279 23.5511 137.523 23.142C137.773 22.733 137.898 22.2869 137.898 21.804V20.2614C137.802 20.3409 137.637 20.4148 137.404 20.483C137.177 20.5511 136.921 20.6108 136.637 20.6619C136.353 20.7131 136.072 20.7585 135.793 20.7983C135.515 20.8381 135.273 20.8722 135.069 20.9006C134.609 20.9631 134.197 21.0653 133.833 21.2074C133.469 21.3494 133.183 21.5483 132.972 21.804C132.762 22.054 132.657 22.3778 132.657 22.7756C132.657 23.3438 132.864 23.7727 133.279 24.0625C133.694 24.3523 134.222 24.4972 134.864 24.4972ZM147.163 18.8295V26.5H144.077V13.4091H147.026V15.6335H147.18C147.481 14.9006 147.961 14.3182 148.62 13.8864C149.285 13.4545 150.106 13.2386 151.083 13.2386C151.987 13.2386 152.773 13.4318 153.444 13.8182C154.12 14.2045 154.643 14.7642 155.012 15.4972C155.387 16.2301 155.572 17.1193 155.566 18.1648V26.5H152.481V18.642C152.481 17.767 152.254 17.0824 151.799 16.5881C151.35 16.0937 150.728 15.8466 149.933 15.8466C149.393 15.8466 148.913 15.9659 148.492 16.2045C148.077 16.4375 147.751 16.7756 147.512 17.2188C147.279 17.6619 147.163 18.1989 147.163 18.8295ZM161.515 22.392L161.506 18.6676H162.001L166.705 13.4091H170.31L164.523 19.8523H163.884L161.515 22.392ZM158.702 26.5V9.04545H161.788V26.5H158.702ZM166.918 26.5L162.657 20.5426L164.737 18.3693L170.609 26.5H166.918Z" fill="white"/>
</svg>
