<svg width="125" height="25" viewBox="0 0 125 25" fill="none" xmlns="http://www.w3.org/2000/svg">
<path d="M18.0498 12.7654H13.7769L9.79523 5.8693C9.47905 5.32329 8.69004 5.32329 8.37531 5.8693L2.00909 16.8949C0.455811 15.9488 -0.56346 13.9432 0.337385 12.3847L0.559744 12.0026L6.47525 1.75739C7.63461 -0.252462 10.5345 -0.252462 11.6953 1.75739L18.0498 12.7654Z" fill="#E52A2A"/>
<path d="M9.79523 5.87073C9.47904 5.32472 8.69004 5.32472 8.37531 5.87073L2.00909 16.8963C0.455811 15.9503 -0.56346 13.9447 0.337385 12.3861L0.559744 12.0041L4.9552 4.39123C4.9552 4.39123 5.68156 3.92031 7.02946 4.03859C8.83788 4.19727 9.79523 5.87073 9.79523 5.87073Z" fill="#981F20"/>
<path d="M9.07326 6.63867L11.2097 10.3391L7.22839 17.2354C6.91367 17.7823 7.30817 18.4656 7.93835 18.465L20.6699 18.4654C20.6272 20.2837 19.3999 22.1692 17.5998 22.1682L17.1577 22.1668L5.32731 22.1665C3.00713 22.1673 1.55719 19.656 2.71728 17.6458L9.07326 6.63867Z" fill="#36B04A"/>
<path d="M7.22881 17.2344C6.91409 17.7813 7.30859 18.4646 7.93877 18.464L20.6703 18.4644C20.6276 20.2827 19.4003 22.1682 17.6002 22.1672L17.1582 22.1658L8.36753 22.1656C8.36753 22.1656 7.59652 21.772 7.02504 20.5456C6.25828 18.9002 7.22881 17.2344 7.22881 17.2344Z" fill="#106A37"/>
<path d="M8.27075 17.4647L10.4072 13.7643L18.3702 13.7642C19.0011 13.7633 19.3956 13.0801 19.0802 12.5345L12.7148 1.50849C14.3108 0.636335 16.5574 0.756514 17.4566 2.31594L17.6763 2.69961L23.5913 12.9451C24.7521 14.9541 23.3023 17.4655 20.9812 17.4658L8.27075 17.4647Z" fill="#1F94D1"/>
<path d="M18.3703 13.7642C19.0013 13.7633 19.3958 13.0801 19.0803 12.5345L12.715 1.50849C14.311 0.636335 16.5575 0.756514 17.4568 2.31594L17.6765 2.69961L22.0717 10.3126C22.0717 10.3126 22.1163 11.1771 21.3399 12.2853C20.2982 13.7718 18.3703 13.7642 18.3703 13.7642Z" fill="#283C8A"/>
<path d="M38.1289 15.2363V20H36.6523V7.39648H40.1152C41.4629 7.39648 42.5059 7.72461 43.2441 8.38086C43.9883 9.03711 44.3604 9.96289 44.3604 11.1582C44.3604 12.3535 43.9473 13.332 43.1211 14.0938C42.3008 14.8555 41.1904 15.2363 39.79 15.2363H38.1289ZM38.1289 8.73242V13.9004H39.6758C40.6953 13.9004 41.4717 13.6689 42.0049 13.2061C42.5439 12.7373 42.8135 12.0781 42.8135 11.2285C42.8135 9.56445 41.8291 8.73242 39.8604 8.73242H38.1289ZM51.2422 12.459C50.9902 12.2656 50.627 12.1689 50.1523 12.1689C49.5371 12.1689 49.0215 12.459 48.6055 13.0391C48.1953 13.6191 47.9902 14.4102 47.9902 15.4121V20H46.5488V11H47.9902V12.8545H48.0254C48.2305 12.2217 48.5439 11.7295 48.9658 11.3779C49.3877 11.0205 49.8594 10.8418 50.3809 10.8418C50.7559 10.8418 51.043 10.8828 51.2422 10.9648V12.459ZM53.5449 8.71484C53.2871 8.71484 53.0674 8.62695 52.8857 8.45117C52.7041 8.27539 52.6133 8.05273 52.6133 7.7832C52.6133 7.51367 52.7041 7.29102 52.8857 7.11523C53.0674 6.93359 53.2871 6.84277 53.5449 6.84277C53.8086 6.84277 54.0312 6.93359 54.2129 7.11523C54.4004 7.29102 54.4941 7.51367 54.4941 7.7832C54.4941 8.04102 54.4004 8.26074 54.2129 8.44238C54.0312 8.62402 53.8086 8.71484 53.5449 8.71484ZM54.248 20H52.8066V11H54.248V20ZM69.9453 20H68.5039V14.832C68.5039 13.8359 68.3486 13.1152 68.0381 12.6699C67.7334 12.2246 67.2178 12.002 66.4912 12.002C65.876 12.002 65.3516 12.2832 64.918 12.8457C64.4902 13.4082 64.2764 14.082 64.2764 14.8672V20H62.835V14.6562C62.835 12.8867 62.1523 12.002 60.7871 12.002C60.1543 12.002 59.6328 12.2686 59.2227 12.8018C58.8125 13.3291 58.6074 14.0176 58.6074 14.8672V20H57.166V11H58.6074V12.4238H58.6426C59.2812 11.334 60.2129 10.7891 61.4375 10.7891C62.0527 10.7891 62.5889 10.9619 63.0459 11.3076C63.5029 11.6475 63.8164 12.0957 63.9863 12.6523C64.6543 11.4102 65.6504 10.7891 66.9746 10.7891C68.9551 10.7891 69.9453 12.0107 69.9453 14.4541V20ZM79.9033 15.8604H73.5488C73.5723 16.8623 73.8418 17.6357 74.3574 18.1807C74.873 18.7256 75.582 18.998 76.4844 18.998C77.498 18.998 78.4297 18.6641 79.2793 17.9961V19.3496C78.4883 19.9238 77.4424 20.2109 76.1416 20.2109C74.8701 20.2109 73.8711 19.8037 73.1445 18.9893C72.418 18.1689 72.0547 17.0176 72.0547 15.5352C72.0547 14.1348 72.4502 12.9951 73.2412 12.1162C74.0381 11.2314 75.0254 10.7891 76.2031 10.7891C77.3809 10.7891 78.292 11.1699 78.9365 11.9316C79.5811 12.6934 79.9033 13.751 79.9033 15.1045V15.8604ZM78.4268 14.6387C78.4209 13.8066 78.2188 13.1592 77.8203 12.6963C77.4277 12.2334 76.8799 12.002 76.1768 12.002C75.4971 12.002 74.9199 12.2451 74.4453 12.7314C73.9707 13.2178 73.6777 13.8535 73.5664 14.6387H78.4268ZM87.2246 20V7.39648H90.8105C91.9004 7.39648 92.7646 7.66309 93.4033 8.19629C94.042 8.72949 94.3613 9.42383 94.3613 10.2793C94.3613 10.9941 94.168 11.6152 93.7812 12.1426C93.3945 12.6699 92.8613 13.0449 92.1816 13.2676V13.3027C93.0312 13.4023 93.7109 13.7246 94.2207 14.2695C94.7305 14.8086 94.9854 15.5117 94.9854 16.3789C94.9854 17.457 94.5986 18.3301 93.8252 18.998C93.0518 19.666 92.0762 20 90.8984 20H87.2246ZM88.7012 8.73242V12.8018H90.2129C91.0215 12.8018 91.6572 12.6084 92.1201 12.2217C92.583 11.8291 92.8145 11.2783 92.8145 10.5693C92.8145 9.34473 92.0088 8.73242 90.3975 8.73242H88.7012ZM88.7012 14.1289V18.6641H90.7051C91.5723 18.6641 92.2432 18.459 92.7178 18.0488C93.1982 17.6387 93.4385 17.0762 93.4385 16.3613C93.4385 14.873 92.4248 14.1289 90.3975 14.1289H88.7012ZM103.792 20H102.351V18.5938H102.315C101.688 19.6719 100.766 20.2109 99.5469 20.2109C98.6504 20.2109 97.9473 19.9736 97.4375 19.499C96.9336 19.0244 96.6816 18.3945 96.6816 17.6094C96.6816 15.9277 97.6719 14.9492 99.6523 14.6738L102.351 14.2959C102.351 12.7666 101.732 12.002 100.496 12.002C99.4121 12.002 98.4336 12.3711 97.5605 13.1094V11.6328C98.4453 11.0703 99.4648 10.7891 100.619 10.7891C102.734 10.7891 103.792 11.9082 103.792 14.1465V20ZM102.351 15.4473L100.18 15.7461C99.5117 15.8398 99.0078 16.0068 98.668 16.2471C98.3281 16.4814 98.1582 16.9004 98.1582 17.5039C98.1582 17.9434 98.3135 18.3037 98.624 18.585C98.9404 18.8604 99.3594 18.998 99.8809 18.998C100.596 18.998 101.185 18.749 101.647 18.251C102.116 17.7471 102.351 17.1113 102.351 16.3438V15.4473ZM113.979 20H112.537V14.8672C112.537 12.957 111.84 12.002 110.445 12.002C109.725 12.002 109.127 12.2744 108.652 12.8193C108.184 13.3584 107.949 14.041 107.949 14.8672V20H106.508V11H107.949V12.4941H107.984C108.664 11.3574 109.648 10.7891 110.938 10.7891C111.922 10.7891 112.675 11.1084 113.196 11.7471C113.718 12.3799 113.979 13.2969 113.979 14.498V20ZM124.174 20H122.152L118.18 15.6758H118.145V20H116.703V6.67578H118.145V15.1221H118.18L121.959 11H123.849L119.674 15.3418L124.174 20Z" fill="white"/>
</svg>
