<svg width="20" height="21" viewBox="0 0 20 21" fill="none" xmlns="http://www.w3.org/2000/svg">
<path d="M10 0.666016C8.02219 0.666016 6.08879 1.25251 4.4443 2.35132C2.79981 3.45013 1.51809 5.01192 0.761209 6.83918C0.00433286 8.66644 -0.193701 10.6771 0.192152 12.6169C0.578004 14.5567 1.53041 16.3386 2.92894 17.7371C4.32746 19.1356 6.10929 20.088 8.0491 20.4739C9.98891 20.8597 11.9996 20.6617 13.8268 19.9048C15.6541 19.1479 17.2159 17.8662 18.3147 16.2217C19.4135 14.5772 20 12.6438 20 10.666C19.9971 8.01473 18.9426 5.47286 17.0679 3.59811C15.1932 1.72337 12.6513 0.668883 10 0.666016V0.666016ZM10 18.166C8.51664 18.166 7.0666 17.7261 5.83323 16.902C4.59986 16.0779 3.63857 14.9066 3.07091 13.5361C2.50325 12.1657 2.35473 10.6577 2.64411 9.20284C2.9335 7.74798 3.64781 6.41161 4.6967 5.36271C5.7456 4.31382 7.08197 3.59952 8.53683 3.31013C9.99168 3.02074 11.4997 3.16926 12.8701 3.73692C14.2406 4.30458 15.4119 5.26587 16.236 6.49924C17.0601 7.73261 17.5 9.18266 17.5 10.666C17.4978 12.6545 16.7069 14.5608 15.3009 15.9669C13.8948 17.3729 11.9885 18.1638 10 18.166ZM14.1667 10.666C14.1667 10.9975 14.035 11.3155 13.8006 11.5499C13.5661 11.7843 13.2482 11.916 12.9167 11.916H11.25V13.5827C11.25 13.9142 11.1183 14.2321 10.8839 14.4666C10.6495 14.701 10.3315 14.8327 10 14.8327C9.66848 14.8327 9.35054 14.701 9.11612 14.4666C8.8817 14.2321 8.75 13.9142 8.75 13.5827V11.916H7.08334C6.75182 11.916 6.43387 11.7843 6.19945 11.5499C5.96503 11.3155 5.83334 10.9975 5.83334 10.666C5.83334 10.3345 5.96503 10.0166 6.19945 9.78213C6.43387 9.54771 6.75182 9.41602 7.08334 9.41602H8.75V7.74935C8.75 7.41783 8.8817 7.09989 9.11612 6.86547C9.35054 6.63105 9.66848 6.49935 10 6.49935C10.3315 6.49935 10.6495 6.63105 10.8839 6.86547C11.1183 7.09989 11.25 7.41783 11.25 7.74935V9.41602H12.9167C13.2482 9.41602 13.5661 9.54771 13.8006 9.78213C14.035 10.0166 14.1667 10.3345 14.1667 10.666Z" fill="#094E9E"/>
</svg>
