<svg width="24" height="25" viewBox="0 0 24 25" fill="none" xmlns="http://www.w3.org/2000/svg">
<path d="M12.0001 0.666016C5.3832 0.666016 0 6.04914 0 12.6659C0 19.2827 5.3832 24.6659 12.0001 24.6659C18.6169 24.6659 24 19.2827 24 12.6659C24 6.04914 18.6169 0.666016 12.0001 0.666016ZM12.0001 22.6987C6.46792 22.6987 1.9672 18.1981 1.9672 12.6659C1.9672 7.13385 6.46792 2.63322 12.0001 2.63322C17.5322 2.63322 22.0328 7.13385 22.0328 12.6659C22.0328 18.1981 17.5322 22.6987 12.0001 22.6987Z" fill="#094E9E"/>
<path d="M17.1904 8.05953L10.0655 15.1845L6.80801 11.927C6.42386 11.5429 5.80112 11.5429 5.41696 11.927C5.03289 12.3111 5.03289 12.9339 5.41696 13.318L9.37001 17.2711C9.56209 17.4631 9.81381 17.5591 10.0655 17.5591C10.3173 17.5591 10.569 17.4631 10.7611 17.2711L18.5815 9.45066C18.9655 9.0665 18.9655 8.44377 18.5815 8.05961C18.1973 7.67546 17.5745 7.67546 17.1904 8.05953Z" fill="#094E9E"/>
</svg>
