<svg width="14" height="17" viewBox="0 0 14 17" fill="none" xmlns="http://www.w3.org/2000/svg">
<path d="M12.25 2.66602H9.5V2.16602C9.5 1.33758 8.82844 0.666016 8 0.666016H6C5.17156 0.666016 4.5 1.33758 4.5 2.16602V2.66602H1.75C1.05966 2.66602 0.5 3.22567 0.5 3.91602V4.91602C0.5 5.19217 0.723844 5.41602 1 5.41602H13C13.2762 5.41602 13.5 5.19217 13.5 4.91602V3.91602C13.5 3.22567 12.9403 2.66602 12.25 2.66602ZM5.5 2.16602C5.5 1.89039 5.72437 1.66602 6 1.66602H8C8.27563 1.66602 8.5 1.89039 8.5 2.16602V2.66602H5.5V2.16602Z" fill="#094E9E"/>
<path d="M1.45312 6.41602C1.3639 6.41602 1.29281 6.49058 1.29706 6.5797L1.70956 15.2373C1.74768 16.0385 2.40581 16.666 3.20768 16.666H10.8008C11.6027 16.666 12.2608 16.0385 12.2989 15.2373L12.7114 6.5797C12.7157 6.49058 12.6446 6.41602 12.5554 6.41602H1.45312ZM9.00424 7.66602C9.00424 7.38977 9.22799 7.16602 9.50424 7.16602C9.78049 7.16602 10.0042 7.38977 10.0042 7.66602V14.166C10.0042 14.4423 9.78049 14.666 9.50424 14.666C9.22799 14.666 9.00424 14.4423 9.00424 14.166V7.66602ZM6.50424 7.66602C6.50424 7.38977 6.72799 7.16602 7.00424 7.16602C7.28049 7.16602 7.50424 7.38977 7.50424 7.66602V14.166C7.50424 14.4423 7.28049 14.666 7.00424 14.666C6.72799 14.666 6.50424 14.4423 6.50424 14.166V7.66602ZM4.00424 7.66602C4.00424 7.38977 4.22799 7.16602 4.50424 7.16602C4.78049 7.16602 5.00424 7.38977 5.00424 7.66602V14.166C5.00424 14.4423 4.78049 14.666 4.50424 14.666C4.22799 14.666 4.00424 14.4423 4.00424 14.166V7.66602Z" fill="#094E9E"/>
</svg>
