<svg width="20" height="21" viewBox="0 0 20 21" fill="none" xmlns="http://www.w3.org/2000/svg">
<path d="M10 0.666016C4.48 0.666016 0 5.14602 0 10.666C0 16.186 4.48 20.666 10 20.666C15.52 20.666 20 16.186 20 10.666C20 5.14602 15.52 0.666016 10 0.666016ZM6.73 6.32602C7.54 6.32602 8.21 6.98602 8.21 7.80602C8.21 8.61602 7.55 9.28602 6.73 9.28602C5.92 9.28602 5.25 8.62602 5.25 7.80602C5.25 6.98602 5.91 6.32602 6.73 6.32602ZM6.85 14.466C6.7 14.616 6.51 14.686 6.32 14.686C6.13 14.686 5.94 14.616 5.79 14.466C5.5 14.176 5.5 13.696 5.79 13.406L12.34 6.85602C12.63 6.56602 13.11 6.56602 13.4 6.85602C13.69 7.14602 13.69 7.62602 13.4 7.91602L6.85 14.466ZM13.27 15.006C12.46 15.006 11.79 14.346 11.79 13.526C11.79 12.716 12.45 12.046 13.27 12.046C14.08 12.046 14.75 12.706 14.75 13.526C14.75 14.346 14.09 15.006 13.27 15.006Z" fill="#094E9E"/>
</svg>
