<svg width="24" height="24" viewBox="0 0 24 24" fill="none" xmlns="http://www.w3.org/2000/svg">
<path d="M11.125 8.8125V18.1875C11.125 19.223 11.9645 20.0625 13 20.0625C14.0355 20.0625 14.875 19.223 14.875 18.1875V12.5625" stroke="#094E9E" stroke-width="1.875" stroke-miterlimit="10" stroke-linecap="round" stroke-linejoin="round"/>
<path d="M11.125 10.6875C11.125 11.723 10.2855 12.5625 9.25 12.5625C8.21448 12.5625 7.375 11.723 7.375 10.6875V8.8125C7.375 4.67039 10.7328 1.3125 14.875 1.3125C19.0172 1.3125 22.375 4.67034 22.375 8.8125C22.375 10.8836 20.6961 12.5625 18.625 12.5625H14.875" stroke="#094E9E" stroke-width="1.875" stroke-miterlimit="10" stroke-linecap="round" stroke-linejoin="round"/>
<path d="M6.75 21.125L4.875 23L3 21.125" stroke="#094E9E" stroke-width="1.875" stroke-miterlimit="10" stroke-linecap="round" stroke-linejoin="round"/>
<path d="M4.875 23V14" stroke="#094E9E" stroke-width="1.875" stroke-miterlimit="10" stroke-linecap="round" stroke-linejoin="round"/>
</svg>
