<svg xmlns="http://www.w3.org/2000/svg" id="circle_flat_gradient" height="512" viewBox="0 0 1000 1000" width="512" data-name="circle flat gradient" transform="matrix(-1, 0, 0, 1, 0, 0)"><path d="m500 15c-267.86 0-485 217.14-485 485s217.14 485 485 485 485-217.14 485-485-217.14-485-485-485zm0 150a153.7 153.7 0 1 1 -153.7 153.7 153.7 153.7 0 0 1 153.7-153.7zm205.27 641.36a392.3 392.3 0 0 1 -410.54 0c-65.31-40.24-78-130.15-26.14-186.66a314 314 0 0 1 462.82 0c51.87 56.51 39.17 146.42-26.14 186.66z" fill="#8f8d8d"/></svg>