<svg width="23" height="16" viewBox="0 0 23 16" fill="none" xmlns="http://www.w3.org/2000/svg">
<path fill-rule="evenodd" clip-rule="evenodd" d="M21.0857 8.07961C19.149 11.5574 15.4763 13.7178 11.5027 13.7178C7.52644 13.7178 3.85373 11.5574 1.91705 8.07961C1.76789 7.80956 1.76789 7.52409 1.91705 7.25428C3.85373 3.77653 7.52644 1.61634 11.5027 1.61634C15.4763 1.61634 19.149 3.77653 21.0857 7.25428C21.2375 7.52409 21.2375 7.80956 21.0857 8.07961ZM22.3228 6.56475C20.1367 2.63817 15.9907 0.199219 11.5027 0.199219C7.01203 0.199219 2.86608 2.63817 0.679922 6.56475C0.288984 7.26534 0.288984 8.06855 0.679922 8.76863C2.86608 12.6952 7.01203 15.1347 11.5027 15.1347C15.9907 15.1347 20.1367 12.6952 22.3228 8.76863C22.7138 8.06859 22.7138 7.26534 22.3228 6.56475ZM11.5027 10.5739C13.105 10.5739 14.409 9.26991 14.409 7.66683C14.409 6.06375 13.105 4.75978 11.5027 4.75978C9.89775 4.75978 8.59378 6.06375 8.59378 7.66683C8.59378 9.26991 9.8978 10.5739 11.5027 10.5739ZM11.5027 3.34266C9.11588 3.34266 7.17666 5.28267 7.17666 7.66687C7.17666 10.0516 9.11592 11.9908 11.5027 11.9908C13.8869 11.9908 15.8261 10.0515 15.8261 7.66687C15.8261 5.28267 13.8869 3.34266 11.5027 3.34266Z" fill="#094E9E"/>
</svg>
