<svg width="20" height="20" viewBox="0 0 20 20" fill="none" xmlns="http://www.w3.org/2000/svg">
<g clip-path="url(#clip0_8215_61275)">
<path d="M0.74232 6.28947C0.715312 6.2894 0.688324 6.28797 0.661461 6.28517C0.564553 6.27457 0.470684 6.24498 0.385215 6.19809C0.299746 6.1512 0.224351 6.08794 0.163338 6.01191C0.102324 5.93587 0.0568864 5.84857 0.0296206 5.75497C0.00235477 5.66138 -0.00620522 5.56333 0.00442957 5.46642C0.0520858 5.02736 0.109508 4.60705 0.180601 4.17931V4.17228C0.523961 2.23674 2.24154 0.519158 4.17709 0.17697H4.18451C4.61185 0.104314 5.03295 0.046892 5.47162 0.000407638C5.66732 -0.0207786 5.86342 0.0366447 6.01678 0.160045C6.17014 0.283446 6.2682 0.462715 6.28939 0.658415C6.31058 0.854116 6.25315 1.05022 6.12975 1.20358C6.00635 1.35694 5.82708 1.455 5.63138 1.47619C5.2224 1.52072 4.82982 1.57424 4.43177 1.64025C3.79427 1.75275 3.15521 2.10353 2.63177 2.62697C2.10834 3.15041 1.75795 3.78947 1.64427 4.42697C1.57826 4.82424 1.52357 5.21681 1.48021 5.62541C1.46092 5.80767 1.37487 5.97635 1.23863 6.09896C1.10239 6.22157 0.925604 6.28943 0.74232 6.28947Z" fill="#065B05"/>
<path d="M19.2557 6.29533C19.0728 6.29515 18.8965 6.22747 18.7605 6.10529C18.6244 5.9831 18.5383 5.815 18.5186 5.63322C18.4744 5.22385 18.4209 4.83127 18.3549 4.434C18.2424 3.79611 17.8908 3.15705 17.367 2.63361C16.8432 2.11017 16.2045 1.75783 15.567 1.64611C15.169 1.5797 14.7764 1.52619 14.3674 1.48205C14.1717 1.46086 13.9924 1.3628 13.869 1.20944C13.7456 1.05608 13.6882 0.859976 13.7094 0.664275C13.7306 0.468574 13.8286 0.289305 13.982 0.165905C14.1354 0.0425041 14.3315 -0.0149192 14.5272 0.00626701C14.9658 0.0535326 15.3865 0.111345 15.8143 0.182439H15.8217C17.7576 0.525798 19.4752 2.24338 19.817 4.1797V4.18713C19.8881 4.61408 19.9459 5.03517 19.9932 5.47619C20.0136 5.67127 19.9559 5.86648 19.8328 6.01916C19.7097 6.17185 19.5311 6.26959 19.3362 6.29103C19.3094 6.29399 19.2826 6.29542 19.2557 6.29533Z" fill="#065B05"/>
<path d="M14.4457 20.0055C14.2559 20.0051 14.0734 19.932 13.9359 19.8012C13.7983 19.6704 13.7161 19.4919 13.7061 19.3024C13.6961 19.1129 13.7591 18.9267 13.8821 18.7822C14.0051 18.6377 14.1788 18.5458 14.3675 18.5254C14.7773 18.4809 15.1699 18.4274 15.5668 18.3613C16.2046 18.2477 16.8437 17.8973 17.3671 17.3735C17.8906 16.8496 18.2418 16.211 18.3543 15.5735C18.4203 15.1758 18.4738 14.7836 18.5179 14.3742C18.5391 14.1785 18.6372 13.9993 18.7905 13.8759C18.9439 13.7525 19.14 13.695 19.3357 13.7162C19.5314 13.7374 19.7107 13.8355 19.8341 13.9888C19.9575 14.1422 20.0149 14.3383 19.9937 14.534C19.9464 14.9731 19.8886 15.3934 19.8175 15.8211V15.8285C19.4757 17.7641 17.7582 19.4817 15.8222 19.8235H15.8152C15.3882 19.8942 14.9671 19.952 14.5261 19.9996C14.4994 20.0029 14.4726 20.0049 14.4457 20.0055Z" fill="#065B05"/>
<path d="M5.55236 19.9996C5.52534 19.9996 5.49834 19.998 5.4715 19.9949C5.03205 19.9473 4.61213 19.8899 4.18439 19.8188H4.17697C2.24142 19.4738 0.523845 17.7563 0.181658 15.8199V15.8125C0.109392 15.3863 0.0519701 14.9656 0.00431389 14.5262C-0.0168723 14.3305 0.040551 14.1344 0.163951 13.981C0.287352 13.8277 0.466621 13.7296 0.662322 13.7084C0.858022 13.6872 1.05412 13.7447 1.20749 13.8681C1.36085 13.9915 1.45891 14.1707 1.48009 14.3664C1.52463 14.7762 1.57814 15.1684 1.64416 15.566C1.75783 16.2035 2.10939 16.8426 2.63166 17.366C3.15392 17.8895 3.79416 18.2418 4.43166 18.3535C4.82931 18.4195 5.2215 18.4735 5.63127 18.5176C5.8207 18.5371 5.99539 18.6287 6.11919 18.7734C6.24299 18.9181 6.30644 19.1048 6.29641 19.295C6.28637 19.4852 6.20362 19.6642 6.06528 19.7951C5.92693 19.9259 5.74358 19.9986 5.55314 19.9981L5.55236 19.9996Z" fill="#065B05"/>
<path d="M10.1588 15.8561C9.24826 15.8787 7.45959 15.7389 6.87482 15.5982C6.47639 15.5143 6.10178 15.2822 5.82014 14.9596C5.54141 14.6448 5.36618 14.2519 5.31818 13.8342V13.8217C5.28777 13.5205 5.27837 13.2175 5.29006 12.915C5.29006 12.915 5.26779 12.6482 5.31818 12.1639V12.1518C5.3608 11.7541 5.53869 11.3832 5.82209 11.101C6.10683 10.8158 6.48017 10.636 6.88068 10.5912C7.46662 10.5291 9.25217 10.4951 10.1592 10.4951C11.0662 10.4951 12.5225 10.5291 13.1088 10.5912C13.5093 10.6359 13.8827 10.8157 14.1674 11.101C14.4509 11.3833 14.6288 11.7544 14.6713 12.1521V12.1643C14.7003 12.4133 14.715 12.6639 14.7154 12.9146C14.7168 13.2181 14.7022 13.5214 14.6717 13.8232V13.8354C14.6236 14.2534 14.4481 14.6466 14.169 14.9615C13.8865 15.2842 13.5119 15.5162 13.1143 15.6002C12.5283 15.7318 11.0694 15.8623 10.1588 15.8561Z" fill="#065B05"/>
<path d="M9.94102 9.81367C11.507 9.81367 12.7766 8.54415 12.7766 6.97813C12.7766 5.4121 11.507 4.14258 9.94102 4.14258C8.37499 4.14258 7.10547 5.4121 7.10547 6.97813C7.10547 8.54415 8.37499 9.81367 9.94102 9.81367Z" fill="#065B05"/>
</g>
<defs>
<clipPath id="clip0_8215_61275">
<rect width="20" height="20" fill="white"/>
</clipPath>
</defs>
</svg>
