<svg width="24" height="24" viewBox="0 0 24 24" fill="none" xmlns="http://www.w3.org/2000/svg">
<path d="M1.51846 6.80029C2.41592 2.34814 8.2167 0.5 11.123 0.5C14.6444 0.5 17.2265 1.61084 19.0175 3.896C20.6347 5.96143 20.1464 8.3291 19.8192 9.34717L20.5194 10.043C20.5546 10.0781 20.5858 10.1162 20.6142 10.1572C20.7763 10.3999 22.2138 12.5435 22.4872 13.0869C22.6981 13.5068 22.6532 13.8652 22.578 14.0918C22.411 14.5928 21.9765 14.8311 21.8329 14.8994L21.0019 15.2295V16.5332C21.0019 16.6699 20.9647 16.8037 20.8935 16.9209L20.2841 17.9297C20.7362 19.5869 20.1317 20.2998 19.998 20.4326C18.8573 21.5664 16.5595 21.4688 15.2636 21.3018V22.75C15.2636 23.1641 14.9276 23.5 14.5136 23.5H5.64541C5.23135 23.5 4.89541 23.1641 4.89541 22.75V20.4189C4.89541 17.707 4.4999 16.7793 4.26358 16.4668C4.11221 16.2666 0.571194 11.5068 1.51846 6.80029ZM5.46084 15.5625C6.29873 16.6709 6.39541 18.8652 6.39541 20.4189V22H13.7636V20.4189C13.7636 20.1924 13.8661 19.9785 14.0419 19.8369C14.2177 19.6943 14.4511 19.6396 14.6688 19.6855C15.7333 19.9092 18.1767 20.1289 18.8876 19.4297C18.8896 19.4268 19.0946 19.0693 18.7587 18.0664C18.6884 17.8574 18.7138 17.6289 18.828 17.4404L19.5019 16.3242V14.7197C19.5019 14.4121 19.6894 14.1357 19.9755 14.0225L21.0565 13.5996C20.7558 13.0859 19.9394 11.8442 19.4101 11.0547L18.4198 10.0713C18.1962 9.84961 18.1356 9.5127 18.2665 9.22705C18.2772 9.20264 19.3622 6.77051 17.8358 4.8208C16.3495 2.92285 14.1532 2 11.123 2C8.72256 2 3.70596 3.53906 2.98916 7.09668C2.17373 11.1489 5.42764 15.5195 5.46084 15.5625Z" fill="#094E9E"/>
</svg>
