<svg width="24" height="24" viewBox="0 0 24 24" fill="none" xmlns="http://www.w3.org/2000/svg">
<path d="M22.4815 6.80029C21.5841 2.34814 15.7833 0.5 12.877 0.5C9.35556 0.5 6.77353 1.61084 4.98252 3.896C3.36533 5.96143 3.85361 8.3291 4.18076 9.34717L3.48056 10.043C3.44541 10.0781 3.41416 10.1162 3.38584 10.1572C3.22373 10.3999 1.78623 12.5435 1.51279 13.0869C1.30185 13.5068 1.34677 13.8652 1.42197 14.0918C1.58896 14.5928 2.02353 14.8311 2.16709 14.8994L2.99814 15.2295V16.5332C2.99814 16.6699 3.03525 16.8037 3.10654 16.9209L3.71592 17.9297C3.26377 19.5869 3.86826 20.2998 4.00205 20.4326C5.14267 21.5664 7.44053 21.4688 8.73642 21.3018V22.75C8.73642 23.1641 9.07236 23.5 9.48642 23.5H18.3546C18.7687 23.5 19.1046 23.1641 19.1046 22.75V20.4189C19.1046 17.707 19.5001 16.7793 19.7364 16.4668C19.8878 16.2666 23.4288 11.5068 22.4815 6.80029ZM18.5392 15.5625C17.7013 16.6709 17.6046 18.8652 17.6046 20.4189V22H10.2364V20.4189C10.2364 20.1924 10.1339 19.9785 9.9581 19.8369C9.78232 19.6943 9.54892 19.6396 9.33115 19.6855C8.2667 19.9092 5.82334 20.1289 5.1124 19.4297C5.11045 19.4268 4.90537 19.0693 5.24131 18.0664C5.31162 17.8574 5.28623 17.6289 5.17197 17.4404L4.49814 16.3242V14.7197C4.49814 14.4121 4.31064 14.1357 4.02451 14.0225L2.94345 13.5996C3.24424 13.0859 4.06064 11.8442 4.58994 11.0547L5.58017 10.0713C5.80381 9.84961 5.86435 9.5127 5.73349 9.22705C5.72275 9.20264 4.63779 6.77051 6.16416 4.8208C7.65049 2.92285 9.84678 2 12.877 2C15.2774 2 20.294 3.53906 21.0108 7.09668C21.8263 11.1489 18.5724 15.5195 18.5392 15.5625Z" fill="#094E9E"/>
</svg>
