<svg width="18" height="19" viewBox="0 0 18 19" fill="none" xmlns="http://www.w3.org/2000/svg">
<path fill-rule="evenodd" clip-rule="evenodd" d="M18 9.66602C18 14.6366 13.9706 18.666 9 18.666C4.02944 18.666 0 14.6366 0 9.66602C0 4.69545 4.02944 0.666016 9 0.666016C13.9706 0.666016 18 4.69545 18 9.66602ZM10 5.66602C10 6.2183 9.55229 6.66602 9 6.66602C8.44771 6.66602 8 6.2183 8 5.66602C8 5.11373 8.44771 4.66602 9 4.66602C9.55229 4.66602 10 5.11373 10 5.66602ZM10 14.666V8.66602H8V14.666H10Z" fill="#094E9E"/>
</svg>
