<svg width="18" height="25" viewBox="0 0 18 25" fill="none" xmlns="http://www.w3.org/2000/svg">
<path d="M9 0.666748C6.61402 0.669913 4.32668 1.61914 2.63953 3.30628C0.952393 4.99342 0.00316505 7.28077 0 9.66675C0 16.128 8.385 24.2205 8.74125 24.5617C8.81054 24.6291 8.90337 24.6668 9 24.6668C9.09663 24.6668 9.18946 24.6291 9.25875 24.5617C9.615 24.2205 18 16.128 18 9.66675C17.9968 7.28077 17.0476 4.99342 15.3605 3.30628C13.6733 1.61914 11.386 0.669913 9 0.666748ZM9 13.7917C8.18415 13.7917 7.38663 13.5498 6.70827 13.0966C6.02992 12.6433 5.50121 11.9991 5.189 11.2453C4.87679 10.4916 4.7951 9.66217 4.95426 8.862C5.11343 8.06183 5.50629 7.32682 6.08318 6.74993C6.66008 6.17304 7.39508 5.78017 8.19525 5.62101C8.99542 5.46184 9.82482 5.54353 10.5786 5.85574C11.3323 6.16796 11.9766 6.69667 12.4298 7.37502C12.8831 8.05337 13.125 8.8509 13.125 9.66675C13.1243 10.7606 12.6895 11.8094 11.9161 12.5828C11.1426 13.3563 10.0938 13.7911 9 13.7917Z" fill="#094E9E"/>
</svg>
