<svg width="16" height="17" viewBox="0 0 16 17" fill="none" xmlns="http://www.w3.org/2000/svg">
<g clip-path="url(#clip0_6841_28163)">
<path d="M9.88087 3.35352L1.07744 12.1576C1.03315 12.202 1.00117 12.2581 0.985939 12.3184L0.0101637 16.2349C-0.0190245 16.3528 0.0156207 16.4782 0.101663 16.5642C0.166765 16.6293 0.255472 16.6654 0.346209 16.6654C0.374002 16.6654 0.402428 16.662 0.430094 16.655L4.34665 15.6791C4.40769 15.6638 4.46315 15.632 4.50744 15.5877L13.3116 6.78428L9.88087 3.35352Z" fill="#094E9E"/>
<path d="M15.4904 2.15259L14.5104 1.17262C13.8555 0.517663 12.714 0.518298 12.0598 1.17262L10.8594 2.37302L14.29 5.80365L15.4904 4.60326C15.8176 4.27622 15.9978 3.84093 15.9978 3.37798C15.9978 2.91503 15.8176 2.47975 15.4904 2.15259Z" fill="#094E9E"/>
</g>
<defs>
<clipPath id="clip0_6841_28163">
<rect width="16" height="16" fill="white" transform="translate(0 0.666016)"/>
</clipPath>
</defs>
</svg>
