<svg width="121" height="121" viewBox="0 0 121 121" fill="none" xmlns="http://www.w3.org/2000/svg">
<path d="M88.3662 68.0068H69.138L51.2207 36.9743C49.7978 34.5173 46.2473 34.5173 44.831 36.9743L16.1831 86.5895C9.19336 82.3321 4.60665 73.307 8.66044 66.2935L9.66105 64.5742L36.2808 18.4707C41.4979 9.42643 54.5472 9.42643 59.7709 18.4707L88.3662 68.0068Z" fill="#E52A2A"/>
<path d="M51.2207 36.9768C49.7978 34.5198 46.2473 34.5198 44.831 36.9768L16.1831 86.592C9.19336 82.3347 4.60665 73.3095 8.66044 66.296L9.66105 64.5767L29.4406 30.3191C29.4406 30.3191 32.7092 28.2 38.7747 28.7322C46.9126 29.4463 51.2207 36.9768 51.2207 36.9768Z" fill="#981F20"/>
<path d="M47.972 40.4297L57.5861 57.0816L39.6701 88.1148C38.2538 90.5758 40.0291 93.6507 42.8649 93.6481L100.157 93.65C99.9645 101.832 94.4418 110.317 86.3414 110.312L84.3521 110.306L31.1152 110.305C20.6745 110.309 14.1498 99.0075 19.3702 89.9618L47.972 40.4297Z" fill="#36B04A"/>
<path d="M39.6709 88.1113C38.2547 90.5723 40.0299 93.6473 42.8657 93.6446L100.158 93.6466C99.9653 101.829 94.4426 110.314 86.3423 110.309L84.3529 110.302L44.7952 110.302C44.7952 110.302 41.3256 108.531 38.754 103.012C35.3036 95.6077 39.6709 88.1113 39.6709 88.1113Z" fill="#106A37"/>
<path d="M44.3594 89.1546L53.9735 72.5027L89.8068 72.5021C92.6459 72.4981 94.4211 69.4239 93.0016 66.9688L64.3576 17.3517C71.5397 13.427 81.6491 13.9678 85.6957 20.9852L86.6844 22.7117L113.302 68.8165C118.525 77.8569 112.001 89.158 101.556 89.1593L44.3594 89.1546Z" fill="#1F94D1"/>
<path d="M89.8076 72.5021C92.6467 72.4982 94.4219 69.4239 93.0024 66.9688L64.3584 17.3517C71.5405 13.427 81.6499 13.9678 85.6964 20.9852L86.6852 22.7117L106.463 56.97C106.463 56.97 106.664 60.8604 103.17 65.847C98.483 72.5363 89.8076 72.5021 89.8076 72.5021Z" fill="#283C8A"/>
</svg>
