<svg width="270" height="165" viewBox="0 0 270 165" fill="none" xmlns="http://www.w3.org/2000/svg">
<rect y="0.666016" width="270" height="164" rx="4" fill="#F7F7F7"/>
<path d="M127.5 61.6661C127.5 63.3228 126.157 64.6659 124.5 64.6659C122.843 64.6659 121.5 63.3228 121.5 61.6661C121.5 60.0091 122.843 58.666 124.5 58.666C126.157 58.666 127.5 60.0091 127.5 61.6661Z" fill="black"/>
<path d="M148.5 54.166H121.5C119.019 54.166 117 56.185 117 58.666V76.666C117 76.7501 117.021 76.8294 117.026 76.9135C117.004 77.0934 117.013 77.2749 117.079 77.446C117.45 79.5551 119.286 81.166 121.5 81.166H148.5C150.981 81.166 153 79.147 153 76.666V58.666C153 56.185 150.981 54.166 148.5 54.166ZM121.5 57.1661H148.5C149.326 57.1661 150 57.8396 150 58.666V70.5746L142.11 62.6845C141.084 61.6584 139.415 61.6584 138.39 62.6845L131.25 69.8246L129.36 67.9346C128.334 66.9085 126.664 66.9085 125.64 67.9346L120 73.5745V58.666C120 57.8396 120.674 57.1661 121.5 57.1661Z" fill="black"/>
<path d="M101.912 98.098V108.21H107V109.666H100.344V98.098H101.912ZM107.803 105.746C107.803 103.33 109.531 101.634 111.883 101.634C114.219 101.634 115.947 103.33 115.947 105.746C115.947 108.162 114.219 109.858 111.883 109.858C109.531 109.858 107.803 108.162 107.803 105.746ZM109.323 105.746C109.323 107.378 110.363 108.514 111.883 108.514C113.387 108.514 114.443 107.378 114.443 105.746C114.443 104.114 113.387 102.978 111.883 102.978C110.363 102.978 109.323 104.114 109.323 105.746ZM119.924 109.858C118.244 109.858 117.252 108.914 117.252 107.49C117.252 106.05 118.324 105.154 120.164 105.01L122.628 104.818V104.594C122.628 103.282 121.844 102.818 120.788 102.818C119.524 102.818 118.804 103.378 118.804 104.322H117.492C117.492 102.69 118.836 101.618 120.852 101.618C122.788 101.618 124.1 102.642 124.1 104.754V109.666H122.82L122.66 108.402C122.26 109.298 121.188 109.858 119.924 109.858ZM120.356 108.69C121.78 108.69 122.644 107.762 122.644 106.29V105.874L120.644 106.034C119.316 106.162 118.772 106.674 118.772 107.442C118.772 108.274 119.38 108.69 120.356 108.69ZM129.343 109.858C127.071 109.858 125.695 108.162 125.695 105.778C125.695 103.378 127.087 101.618 129.407 101.618C130.607 101.618 131.615 102.146 132.143 103.106V97.89H133.631V109.666H132.287L132.159 108.242C131.647 109.314 130.591 109.858 129.343 109.858ZM129.647 108.498C131.183 108.498 132.127 107.362 132.127 105.73C132.127 104.13 131.183 102.978 129.647 102.978C128.111 102.978 127.215 104.13 127.215 105.73C127.215 107.346 128.111 108.498 129.647 108.498ZM136.561 99.986C136.017 99.986 135.569 99.538 135.569 98.994C135.569 98.434 136.017 98.002 136.561 98.002C137.105 98.002 137.553 98.434 137.553 98.994C137.553 99.538 137.105 99.986 136.561 99.986ZM135.825 109.666V101.842H137.329V109.666H135.825ZM141.04 109.666H139.536V101.842H140.896L141.056 103.042C141.552 102.146 142.544 101.618 143.648 101.618C145.712 101.618 146.656 102.882 146.656 104.882V109.666H145.152V105.218C145.152 103.634 144.416 102.994 143.264 102.994C141.856 102.994 141.04 104.002 141.04 105.522V109.666ZM148.267 105.554C148.267 103.346 149.691 101.618 151.963 101.618C153.227 101.618 154.203 102.194 154.699 103.17L154.811 101.842H156.155V109.346C156.155 111.81 154.635 113.378 152.235 113.378C150.107 113.378 148.651 112.178 148.363 110.194H149.867C150.059 111.346 150.923 112.018 152.235 112.018C153.707 112.018 154.667 111.058 154.667 109.57V108.002C154.155 108.914 153.131 109.458 151.899 109.458C149.675 109.458 148.267 107.746 148.267 105.554ZM149.771 105.522C149.771 106.994 150.683 108.146 152.155 108.146C153.675 108.146 154.603 107.058 154.603 105.522C154.603 104.018 153.707 102.93 152.171 102.93C150.667 102.93 149.771 104.082 149.771 105.522ZM159.47 109.858C158.846 109.858 158.318 109.346 158.318 108.738C158.318 108.114 158.846 107.602 159.47 107.602C160.078 107.602 160.606 108.114 160.606 108.738C160.606 109.346 160.078 109.858 159.47 109.858ZM163.916 109.858C163.292 109.858 162.764 109.346 162.764 108.738C162.764 108.114 163.292 107.602 163.916 107.602C164.524 107.602 165.052 108.114 165.052 108.738C165.052 109.346 164.524 109.858 163.916 109.858ZM168.362 109.858C167.738 109.858 167.21 109.346 167.21 108.738C167.21 108.114 167.738 107.602 168.362 107.602C168.97 107.602 169.498 108.114 169.498 108.738C169.498 109.346 168.97 109.858 168.362 109.858Z" fill="black"/>
</svg>
