<svg width="24" height="25" viewBox="0 0 24 25" fill="none" xmlns="http://www.w3.org/2000/svg">
<path d="M12 0.666016C5.3832 0.666016 0 6.04922 0 12.666C0 19.2828 5.3832 24.666 12 24.666C18.6168 24.666 24 19.2828 24 12.666C24 6.04922 18.6168 0.666016 12 0.666016ZM12 22.4842C6.58625 22.4842 2.18182 18.0798 2.18182 12.666C2.18182 7.25227 6.58625 2.84783 12 2.84783C17.4137 2.84783 21.8182 7.25227 21.8182 12.666C21.8182 18.0798 17.4137 22.4842 12 22.4842Z" fill="#094E9E"/>
<path d="M14.9319 15.5968C13.3155 17.2131 10.6857 17.2132 9.06932 15.5969C8.64336 15.1709 7.95259 15.1709 7.52656 15.5969C7.10052 16.0229 7.10052 16.7136 7.52656 17.1397C8.76023 18.3733 10.3801 18.9899 12.0007 18.9899C13.6207 18.9899 15.2414 18.3731 16.4748 17.1397C16.9008 16.7137 16.9008 16.0229 16.4748 15.5969C16.0487 15.1708 15.3579 15.1709 14.9319 15.5968Z" fill="#094E9E"/>
<path d="M8.37353 11.3677C8.64481 11.0971 8.79972 10.7219 8.79972 10.3393C8.79972 9.95677 8.64481 9.58149 8.37353 9.31095C8.10299 9.0404 7.72772 8.88477 7.34517 8.88477C6.96183 8.88477 6.58735 9.0404 6.31673 9.31095C6.04553 9.58149 5.89062 9.95677 5.89062 10.3393C5.89062 10.7219 6.04553 11.0971 6.31673 11.3677C6.58735 11.6389 6.96263 11.7939 7.34517 11.7939C7.72772 11.7939 8.10299 11.6389 8.37353 11.3677Z" fill="#094E9E"/>
<path d="M16.6538 8.88477C16.2712 8.88477 15.8959 9.0404 15.6253 9.31095C15.3549 9.58149 15.1992 9.95604 15.1992 10.3393C15.1992 10.7226 15.3549 11.0971 15.6253 11.3677C15.8959 11.6389 16.2712 11.7939 16.6538 11.7939C17.0363 11.7939 17.4116 11.6389 17.6821 11.3677C17.9527 11.0971 18.1083 10.7226 18.1083 10.3393C18.1083 9.95677 17.9526 9.58149 17.6821 9.31095C17.4116 9.0404 17.0363 8.88477 16.6538 8.88477Z" fill="#094E9E"/>
</svg>
