<svg width="56" height="56" viewBox="0 0 56 56" fill="none" xmlns="http://www.w3.org/2000/svg">
<path d="M27.9974 4.66602C15.1407 4.66602 4.66406 15.1427 4.66406 27.9993C4.66406 40.856 15.1407 51.3327 27.9974 51.3327C40.8541 51.3327 51.3307 40.856 51.3307 27.9993C51.3307 15.1427 40.8541 4.66602 27.9974 4.66602ZM39.1507 22.6327L25.9207 35.8627C25.5941 36.1893 25.1507 36.376 24.6841 36.376C24.2174 36.376 23.7741 36.1893 23.4474 35.8627L16.8441 29.2593C16.1674 28.5827 16.1674 27.4627 16.8441 26.786C17.5207 26.1093 18.6407 26.1093 19.3174 26.786L24.6841 32.1527L36.6774 20.1593C37.3541 19.4827 38.4741 19.4827 39.1507 20.1593C39.8274 20.836 39.8274 21.9327 39.1507 22.6327Z" fill="#196835"/>
</svg>
