<svg width="24" height="24" viewBox="0 0 24 24" fill="none" xmlns="http://www.w3.org/2000/svg">
<path d="M10.125 15.5625V6.1875C10.125 5.15198 10.9645 4.3125 12 4.3125C13.0355 4.3125 13.875 5.15198 13.875 6.1875V11.8125" stroke="#094E9E" stroke-width="1.875" stroke-miterlimit="10" stroke-linecap="round" stroke-linejoin="round"/>
<path d="M10.125 13.6875C10.125 12.652 9.28552 11.8125 8.25 11.8125C7.21448 11.8125 6.375 12.652 6.375 13.6875V15.5625C6.375 19.7046 9.73284 23.0625 13.875 23.0625C18.0172 23.0625 21.375 19.7047 21.375 15.5625C21.375 13.4914 19.6961 11.8125 17.625 11.8125H13.875" stroke="#094E9E" stroke-width="1.875" stroke-miterlimit="10" stroke-linecap="round" stroke-linejoin="round"/>
<path d="M6.375 2.8125L4.5 0.9375L2.625 2.8125" stroke="#094E9E" stroke-width="1.875" stroke-miterlimit="10" stroke-linecap="round" stroke-linejoin="round"/>
<path d="M4.5 0.9375V9.9375" stroke="#094E9E" stroke-width="1.875" stroke-miterlimit="10" stroke-linecap="round" stroke-linejoin="round"/>
</svg>
