<svg width="19" height="21" viewBox="0 0 19 21" fill="none" xmlns="http://www.w3.org/2000/svg">
<path d="M17.5035 9.73456C17.0435 9.73456 16.6702 9.36122 16.6702 8.90122C16.6702 6.56372 15.7602 4.36706 14.1077 2.71372C13.7818 2.38789 13.7818 1.86122 14.1077 1.53539C14.4335 1.20956 14.9602 1.20956 15.286 1.53539C17.2535 3.50289 18.3368 6.11872 18.3368 8.90122C18.3368 9.36122 17.9635 9.73456 17.5035 9.73456Z" fill="#FFC107"/>
<path d="M0.833333 9.73456C0.373333 9.73456 0 9.36122 0 8.90122C0 6.11872 1.08333 3.50289 3.05083 1.53539C3.37667 1.20956 3.90333 1.20956 4.22917 1.53539C4.555 1.86122 4.555 2.38789 4.22917 2.71372C2.57667 4.36622 1.66667 6.56372 1.66667 8.90122C1.66667 9.36122 1.29333 9.73456 0.833333 9.73456Z" fill="#FFC107"/>
<path d="M16.9851 14.7602C15.7251 13.6952 15.0026 12.1385 15.0026 10.4893V8.16602C15.0026 5.23352 12.8243 2.80602 10.0026 2.39935V1.49935C10.0026 1.03852 9.62927 0.666016 9.16927 0.666016C8.70927 0.666016 8.33594 1.03852 8.33594 1.49935V2.39935C5.51344 2.80602 3.33594 5.23352 3.33594 8.16602V10.4893C3.33594 12.1385 2.61344 13.6952 1.34594 14.7668C1.02177 15.0443 0.835938 15.4477 0.835938 15.8743C0.835938 16.6785 1.4901 17.3327 2.29427 17.3327H16.0443C16.8484 17.3327 17.5026 16.6785 17.5026 15.8743C17.5026 15.4477 17.3168 15.0443 16.9851 14.7602Z" fill="#FFC107"/>
<path d="M9.16714 20.666C10.6763 20.666 11.9388 19.5902 12.2288 18.166H6.10547C6.39547 19.5902 7.65797 20.666 9.16714 20.666Z" fill="#FFC107"/>
</svg>
