<svg width="12" height="13" viewBox="0 0 12 13" fill="none" xmlns="http://www.w3.org/2000/svg">
<path fill-rule="evenodd" clip-rule="evenodd" d="M6 0.666016C9.31371 0.666016 12 3.35231 12 6.66602C12 9.97972 9.31371 12.666 6 12.666C2.68629 12.666 0 9.97972 0 6.66602C0 3.35231 2.68629 0.666016 6 0.666016ZM6 6.66602C6.41421 6.66602 6.75 7.0018 6.75 7.41602V9.91602C6.75 10.3302 6.41421 10.666 6 10.666C5.58579 10.666 5.25 10.3302 5.25 9.91602V7.41602C5.25 7.0018 5.58579 6.66602 6 6.66602ZM6 2.66602C6.41421 2.66602 6.75 3.0018 6.75 3.41602V3.91602C6.75 4.33023 6.41421 4.66602 6 4.66602C5.58579 4.66602 5.25 4.33023 5.25 3.91602V3.41602C5.25 3.0018 5.58579 2.66602 6 2.66602Z" fill="#B58905"/>
</svg>
