<svg width="24" height="25" viewBox="0 0 24 25" fill="none" xmlns="http://www.w3.org/2000/svg">
<path d="M21.6006 17.0104L14.6236 5.43964C14.3415 4.99829 13.9528 4.63507 13.4933 4.38347C13.0339 4.13188 12.5185 4 11.9947 4C11.4709 4 10.9555 4.13188 10.4961 4.38347C10.0366 4.63507 9.64794 4.99829 9.36581 5.43964L2.38879 17.0104C2.14232 17.4212 2.00836 17.8897 2.00038 18.3688C1.9924 18.8478 2.11067 19.3205 2.34331 19.7394C2.61227 20.2108 3.00158 20.6024 3.47146 20.8741C3.94133 21.1458 4.47492 21.2878 5.01768 21.2858H18.9717C19.5109 21.2915 20.0421 21.1549 20.5117 20.8898C20.9812 20.6247 21.3725 20.2404 21.6461 19.7757C21.8856 19.3525 22.0076 18.8731 21.9996 18.3869C21.9916 17.9007 21.8539 17.4255 21.6006 17.0104ZM11.9947 17.6472C11.8148 17.6472 11.6389 17.5938 11.4893 17.4939C11.3397 17.3939 11.2231 17.2518 11.1543 17.0856C11.0854 16.9194 11.0674 16.7365 11.1025 16.56C11.1376 16.3836 11.2243 16.2215 11.3515 16.0943C11.4787 15.9671 11.6408 15.8804 11.8172 15.8453C11.9937 15.8102 12.1766 15.8282 12.3428 15.8971C12.509 15.9659 12.6511 16.0825 12.7511 16.2321C12.851 16.3817 12.9044 16.5576 12.9044 16.7375C12.9044 16.9788 12.8085 17.2101 12.6379 17.3807C12.4673 17.5513 12.236 17.6472 11.9947 17.6472ZM12.9044 14.0085C12.9044 14.2498 12.8085 14.4812 12.6379 14.6518C12.4673 14.8224 12.236 14.9182 11.9947 14.9182C11.7535 14.9182 11.5221 14.8224 11.3515 14.6518C11.1809 14.4812 11.0851 14.2498 11.0851 14.0085V10.3699C11.0851 10.1287 11.1809 9.89732 11.3515 9.72672C11.5221 9.55613 11.7535 9.46029 11.9947 9.46029C12.236 9.46029 12.4673 9.55613 12.6379 9.72672C12.8085 9.89732 12.9044 10.1287 12.9044 10.3699V14.0085Z" fill="#FFC107"/>
</svg>
