<svg width="20" height="21" viewBox="0 0 20 21" fill="none" xmlns="http://www.w3.org/2000/svg">
<path d="M17.6555 7.36699L15.0055 4.717C14.0055 3.717 12.6305 3.76702 11.9555 4.84202L10.4805 7.17534L15.2055 11.9003L17.5388 10.4254C18.5471 9.7837 18.6055 8.30866 17.6555 7.36699Z" fill="black" stroke="black" stroke-width="1.5" stroke-linecap="round" stroke-linejoin="round"/>
<path d="M15.2072 11.8921L15.4072 15.3254C15.5989 17.2421 14.9322 17.9087 13.1155 18.1254L5.84887 18.9838C4.31554 19.1588 3.21554 18.0588 3.39887 16.5338L4.21553 9.63379" stroke="black" stroke-width="1.5" stroke-linecap="round" stroke-linejoin="round"/>
<path d="M10.4818 7.17564L9.02344 7.08398" stroke="black" stroke-width="1.5" stroke-linecap="round" stroke-linejoin="round"/>
<path d="M4.39844 17.9836L7.04844 15.3252" stroke="black" stroke-width="1.5" stroke-linecap="round" stroke-linejoin="round"/>
<path d="M9.16797 6.08398C9.16797 6.42565 9.11797 6.76733 9.0263 7.08399C8.93464 7.41733 8.80131 7.72566 8.62631 8.01732C8.42631 8.35066 8.17631 8.65066 7.88464 8.90066C7.22631 9.48399 6.36797 9.83398 5.41797 9.83398C4.99297 9.83398 4.59297 9.76733 4.21797 9.63399C3.36797 9.35066 2.65963 8.76732 2.20963 8.01732C1.86796 7.45066 1.66797 6.78398 1.66797 6.08398C1.66797 4.90065 2.20964 3.84231 3.0763 3.15898C3.71797 2.64231 4.53464 2.33398 5.41797 2.33398C7.49297 2.33398 9.16797 4.00898 9.16797 6.08398Z" stroke="black" stroke-width="1.5" stroke-miterlimit="10" stroke-linecap="round" stroke-linejoin="round"/>
<path d="M5.43359 7.48358V4.68359" stroke="black" stroke-width="1.5" stroke-miterlimit="10" stroke-linecap="round" stroke-linejoin="round"/>
<path d="M6.8 6.08398H4" stroke="black" stroke-width="1.5" stroke-miterlimit="10" stroke-linecap="round" stroke-linejoin="round"/>
</svg>
